<?xml version="1.0" encoding="UTF-8" standalone="no"?>
<!-- Created with Inkscape (http://www.inkscape.org/) -->
<svg
   xmlns:dc="http://purl.org/dc/elements/1.1/"
   xmlns:cc="http://creativecommons.org/ns#"
   xmlns:rdf="http://www.w3.org/1999/02/22-rdf-syntax-ns#"
   xmlns:svg="http://www.w3.org/2000/svg"
   xmlns="http://www.w3.org/2000/svg"
   xmlns:sodipodi="http://sodipodi.sourceforge.net/DTD/sodipodi-0.dtd"
   xmlns:inkscape="http://www.inkscape.org/namespaces/inkscape"
   id="svg2460"
   sodipodi:version="0.32"
   inkscape:version="0.46"
   width="146.64999"
   height="35.650002"
   xml:space="preserve"
   sodipodi:docname="ENSAM.svg"
   version="1.0"
   inkscape:output_extension="org.inkscape.output.svg.inkscape"><metadata
     id="metadata2465"><rdf:RDF><cc:Work
         rdf:about=""><dc:format>image/svg+xml</dc:format><dc:type
           rdf:resource="http://purl.org/dc/dcmitype/StillImage" /></cc:Work></rdf:RDF></metadata><defs
     id="defs2463"><inkscape:perspective
       sodipodi:type="inkscape:persp3d"
       inkscape:vp_x="0 : 526.18109 : 1"
       inkscape:vp_y="0 : 1000 : 0"
       inkscape:vp_z="744.09448 : 526.18109 : 1"
       inkscape:persp3d-origin="372.04724 : 350.78739 : 1"
       id="perspective2467" /><clipPath
       clipPathUnits="userSpaceOnUse"
       id="clipPath2479"><path
         d="M 0,7008.66 L 4950.02,7008.66 L 4950.02,7.97803 L 0,7.97803 L 0,7008.66"
         id="path2481" /></clipPath><clipPath
       clipPathUnits="userSpaceOnUse"
       id="clipPath2495"><path
         d="M 586.365,7.97803 L 4950.02,7.97803 L 4950.02,5752.11 L 586.365,5752.11 L 586.365,7.97803"
         id="path2497" /></clipPath><clipPath
       clipPathUnits="userSpaceOnUse"
       id="clipPath2511"><path
         d="M 1934,73.5371 L 4869.04,73.5371 L 4869.04,2960.31 L 1934,2960.31 L 1934,73.5371"
         id="path2513" /></clipPath><clipPath
       clipPathUnits="userSpaceOnUse"
       id="clipPath2631"><path
         d="M 4950.02,6071.53 L 2299.21,6071.53 L 2299.21,6067.26 L 4950.02,6067.26 L 4950.02,6071.53"
         id="path2633" /></clipPath><clipPath
       clipPathUnits="userSpaceOnUse"
       id="clipPath2643"><path
         d="M 4950.02,6067.26 L 2299.21,6067.26 L 2299.21,5752.11 L 2462.48,5752.11 C 2431.04,5792.18 2412.29,5842.67 2412.29,5897.53 L 2412.29,6059.78 L 4950.02,6059.78 L 4950.02,6067.26"
         id="path2645" /></clipPath><clipPath
       clipPathUnits="userSpaceOnUse"
       id="clipPath2655"><path
         d="M 4950.02,6176.3 L 2299.21,6176.3 L 2299.21,6071.53 L 4950.02,6071.53 L 4950.02,6176.3"
         id="path2657" /></clipPath><clipPath
       clipPathUnits="userSpaceOnUse"
       id="clipPath2667"><path
         d="M 2469.31,5743.81 L 2299.21,5743.81 L 2299.21,5519.36 L 4674.46,5519.36 C 4727.29,5592.18 4806.74,5644.42 4898.52,5661.78 L 2648.04,5661.78 C 2576.57,5661.78 2512.54,5693.59 2469.31,5743.81"
         id="path2669" /></clipPath><clipPath
       clipPathUnits="userSpaceOnUse"
       id="clipPath2679"><path
         d="M 2462.48,5752.11 L 2299.21,5752.11 L 2299.21,5743.81 L 2469.31,5743.81 C 2466.98,5746.52 2464.69,5749.29 2462.48,5752.11"
         id="path2681" /></clipPath><clipPath
       clipPathUnits="userSpaceOnUse"
       id="clipPath2691"><path
         d="M 0,7008.66 L 4950.02,7008.66 L 4950.02,7.97803 L 0,7.97803 L 0,7008.66"
         id="path2693" /></clipPath><clipPath
       clipPathUnits="userSpaceOnUse"
       id="clipPath2701"><path
         d="M 4606.13,4948.79 L 4950.02,4948.79 L 4950.02,5668.07 L 4606.13,5668.07 L 4606.13,4948.79"
         id="path2703" /></clipPath><clipPath
       clipPathUnits="userSpaceOnUse"
       id="clipPath2713"><path
         d="M 4950.02,5659.41 C 4859.24,5655.4 4777.49,5617 4717.34,5556.86 C 4705.63,5545.15 4694.75,5532.62 4684.78,5519.36 L 4950.02,5519.36 L 4950.02,5659.41"
         id="path2715" /></clipPath><clipPath
       clipPathUnits="userSpaceOnUse"
       id="clipPath2725"><path
         d="M 4606.13,4948.79 L 4950.02,4948.79 L 4950.02,5668.07 L 4606.13,5668.07 L 4606.13,4948.79"
         id="path2727" /></clipPath><clipPath
       clipPathUnits="userSpaceOnUse"
       id="clipPath2739"><path
         d="M 4950.02,5661.78 L 4898.52,5661.78 C 4806.74,5644.42 4727.29,5592.18 4674.46,5519.36 L 4684.78,5519.36 C 4694.75,5532.62 4705.63,5545.15 4717.34,5556.86 C 4777.49,5617 4859.24,5655.4 4950.02,5659.41 L 4950.02,5661.78"
         id="path2741" /></clipPath><clipPath
       clipPathUnits="userSpaceOnUse"
       id="clipPath2751"><path
         d="M 0,7008.66 L 4950.02,7008.66 L 4950.02,7.97803 L 0,7.97803 L 0,7008.66"
         id="path2753" /></clipPath><clipPath
       clipPathUnits="userSpaceOnUse"
       id="clipPath2767"><path
         d="M 3811.19,5439.14 L 938.783,5439.14 L 938.783,5368.04 L 3811.19,5368.04 L 3811.19,5439.14"
         id="path2769" /></clipPath><clipPath
       clipPathUnits="userSpaceOnUse"
       id="clipPath2779"><path
         d="M 917.978,444.066 L 4523.81,444.066 L 4523.81,2665.14 L 917.978,2665.14 L 917.978,444.066"
         id="path2781" /></clipPath><clipPath
       clipPathUnits="userSpaceOnUse"
       id="clipPath2919"><path
         d="M 0,7008.66 L 4950.02,7008.66 L 4950.02,7.97803 L 0,7.97803 L 0,7008.66"
         id="path2921" /></clipPath><clipPath
       clipPathUnits="userSpaceOnUse"
       id="clipPath2941"><path
         d="M 3711.8,7.97803 L 4950.02,7.97803 L 4950.02,653.915 L 3711.8,653.915 L 3711.8,7.97803"
         id="path2943" /></clipPath><clipPath
       clipPathUnits="userSpaceOnUse"
       id="clipPath3069"><path
         d="M 0,7008.66 L 4950.02,7008.66 L 4950.02,7.97803 L 0,7.97803 L 0,7008.66"
         id="path3071" /></clipPath><clipPath
       clipPathUnits="userSpaceOnUse"
       id="clipPath3131"><path
         d="M 0,4578.93 L 943.423,4578.93 L 943.423,5896.85 L 0,5896.85 L 0,4578.93"
         id="path3133" /></clipPath><clipPath
       clipPathUnits="userSpaceOnUse"
       id="clipPath3141"><path
         d="M 15.8657,5939.21 L 0,5939.21 L 0,4550.2 L 15.8657,4550.2 L 15.8657,4635.98 C 10.5515,4638.35 5.23877,4640.81 0,4643.33 L 0,4652.55 L 0,5823.24 L 0,5832.46 C 5.23877,5834.97 10.5515,5837.43 15.8657,5839.8 L 15.8657,5939.21 M 586.365,4652 C 542.604,4629.41 495.954,4611.56 447.164,4599.17 L 447.164,4550.2 L 586.365,4550.2 L 586.365,4652"
         id="path3143" /></clipPath><clipPath
       clipPathUnits="userSpaceOnUse"
       id="clipPath3157"><path
         d="M 18.1858,5939.21 L 15.8657,5939.21 L 15.8657,5839.8 C 16.6467,5840.15 17.4033,5840.49 18.1858,5840.84 L 18.1858,5939.21 M 15.8657,4635.98 L 15.8657,4550.2 L 18.1858,4550.2 L 18.1858,4634.95 C 17.4033,4635.29 16.6467,4635.63 15.8657,4635.98 M 84.7178,4609.75 L 84.7178,4550.2 L 447.164,4550.2 L 447.164,4599.17 C 395.121,4585.96 340.619,4578.93 284.464,4578.93 C 214.825,4578.93 147.726,4589.73 84.7178,4609.75"
         id="path3159" /></clipPath><clipPath
       clipPathUnits="userSpaceOnUse"
       id="clipPath3173"><path
         d="M 938.783,5939.21 L 84.7178,5939.21 L 84.7178,5866.04 C 147.726,5886.05 214.825,5896.85 284.464,5896.85 L 284.464,5896.85 C 453.196,5896.85 607.11,5833.44 723.68,5729.14 C 754.774,5743.87 789.535,5752.11 826.225,5752.11 L 938.783,5752.11 L 938.783,5939.21"
         id="path3175" /></clipPath><clipPath
       clipPathUnits="userSpaceOnUse"
       id="clipPath3185"><path
         d="M 84.7178,5939.21 L 18.1858,5939.21 L 18.1858,5840.84 C 39.7732,5850.38 61.9868,5858.81 84.7178,5866.04 L 84.7178,5939.21 M 18.1858,4634.95 L 18.1858,4550.2 L 84.7178,4550.2 L 84.7178,4609.75 C 61.9868,4616.97 39.7732,4625.4 18.1858,4634.95"
         id="path3187" /></clipPath><clipPath
       clipPathUnits="userSpaceOnUse"
       id="clipPath3197"><path
         d="M 938.783,5159.31 C 912.856,4941.09 780.299,4755.59 594.672,4656.37 L 594.672,4550.2 L 938.783,4550.2 L 938.783,5159.31"
         id="path3199" /></clipPath><clipPath
       clipPathUnits="userSpaceOnUse"
       id="clipPath3209"><path
         d="M 938.783,5743.81 L 826.225,5743.81 C 792.009,5743.81 759.551,5736.4 730.344,5723.1 C 813.43,5646.71 876.864,5549.2 912.126,5439.14 L 938.783,5439.14 L 938.783,5743.81"
         id="path3211" /></clipPath><clipPath
       clipPathUnits="userSpaceOnUse"
       id="clipPath3221"><path
         d="M 594.672,4656.37 C 591.907,4654.89 589.153,4653.44 586.365,4652 L 586.365,4550.2 L 594.672,4550.2 L 594.672,4656.37"
         id="path3223" /></clipPath><clipPath
       clipPathUnits="userSpaceOnUse"
       id="clipPath3233"><path
         d="M 938.783,5752.11 L 826.225,5752.11 C 789.535,5752.11 754.774,5743.87 723.68,5729.14 C 725.921,5727.14 728.131,5725.14 730.344,5723.1 C 759.551,5736.4 792.009,5743.81 826.225,5743.81 L 938.783,5743.81 L 938.783,5752.11"
         id="path3235" /></clipPath><clipPath
       clipPathUnits="userSpaceOnUse"
       id="clipPath3245"><path
         d="M 938.783,5360.93 L 931.954,5360.93 C 934.722,5346.27 937.003,5331.46 938.783,5316.47 L 938.783,5360.93"
         id="path3247" /></clipPath><clipPath
       clipPathUnits="userSpaceOnUse"
       id="clipPath3257"><path
         d="M 938.783,5368.04 L 930.571,5368.04 C 931.046,5365.67 931.504,5363.31 931.954,5360.93 L 938.783,5360.93 L 938.783,5368.04"
         id="path3259" /></clipPath><clipPath
       clipPathUnits="userSpaceOnUse"
       id="clipPath3269"><path
         d="M 938.783,5439.14 L 912.126,5439.14 C 919.549,5415.97 925.722,5392.24 930.571,5368.04 L 938.783,5368.04 L 938.783,5439.14"
         id="path3271" /></clipPath><clipPath
       clipPathUnits="userSpaceOnUse"
       id="clipPath3281"><path
         d="M 15.8657,5830.7 C 10.531,5828.28 5.25659,5825.8 0,5823.24 L 0,4652.55 C 5.25659,4649.99 10.531,4647.51 15.8657,4645.09 L 15.8657,5830.7 M 586.365,5360.93 L 447.164,5360.93 L 447.164,4607.74 C 496.018,4620.32 542.659,4638.43 586.365,4661.36 L 586.365,5360.93"
         id="path3283" /></clipPath><clipPath
       clipPathUnits="userSpaceOnUse"
       id="clipPath3297"><path
         d="M 18.1858,5831.74 C 17.4155,5831.4 16.6345,5831.05 15.8657,5830.7 L 15.8657,4645.09 C 16.6345,4644.74 17.4155,4644.39 18.1858,4644.04 L 18.1858,5831.74 M 447.164,5360.93 L 84.7178,5360.93 L 84.7178,4618.47 C 147.652,4598.2 214.777,4587.24 284.464,4587.24 C 340.649,4587.24 395.164,4594.36 447.164,4607.74 L 447.164,5360.93"
         id="path3299" /></clipPath><clipPath
       clipPathUnits="userSpaceOnUse"
       id="clipPath3313"><path
         d="M 284.464,5888.54 C 214.777,5888.54 147.652,5877.59 84.7178,5857.31 L 84.7178,5360.93 L 447.164,5360.93 L 586.365,5360.93 L 586.365,5512.25 C 586.365,5604.85 638.853,5685.2 715.689,5725.17 C 600.853,5826.82 449.884,5888.54 284.464,5888.54"
         id="path3315" /></clipPath><clipPath
       clipPathUnits="userSpaceOnUse"
       id="clipPath3325"><path
         d="M 84.7178,5857.31 C 61.9668,5849.98 39.7664,5841.43 18.1858,5831.74 L 18.1858,4644.04 C 39.7664,4634.35 61.9668,4625.8 84.7178,4618.47 L 84.7178,5360.93 L 84.7178,5857.31"
         id="path3327" /></clipPath><clipPath
       clipPathUnits="userSpaceOnUse"
       id="clipPath3337"><path
         d="M 923.501,5360.93 L 594.672,5360.93 L 594.672,4665.8 C 649.969,4695.84 700.416,4733.65 744.575,4777.78 C 862.297,4895.58 935.116,5058.2 935.116,5237.89 C 935.116,5279.96 931.126,5321.08 923.501,5360.93"
         id="path3339" /></clipPath><clipPath
       clipPathUnits="userSpaceOnUse"
       id="clipPath3349"><path
         d="M 722.295,5719.25 C 700.071,5708.07 679.896,5693.42 662.477,5676 C 620.567,5634.09 594.672,5576.24 594.672,5512.25 L 594.672,5360.93 L 923.501,5360.93 C 923.048,5363.3 922.576,5365.68 922.097,5368.04 L 599.387,5368.04 L 599.387,5439.14 L 903.401,5439.14 C 871.323,5537.87 816.276,5626.26 744.575,5698 C 737.314,5705.26 729.891,5712.34 722.295,5719.25"
         id="path3351" /></clipPath><clipPath
       clipPathUnits="userSpaceOnUse"
       id="clipPath3361"><path
         d="M 594.672,5360.93 L 586.365,5360.93 L 586.365,4661.36 C 589.144,4662.82 591.917,4664.3 594.672,4665.8 L 594.672,5360.93"
         id="path3363" /></clipPath><clipPath
       clipPathUnits="userSpaceOnUse"
       id="clipPath3373"><path
         d="M 715.689,5725.17 C 638.853,5685.2 586.365,5604.85 586.365,5512.25 L 586.365,5360.93 L 594.672,5360.93 L 594.672,5512.25 C 594.672,5576.24 620.567,5634.09 662.477,5676 C 679.896,5693.42 700.071,5708.07 722.295,5719.25 C 720.106,5721.24 717.904,5723.21 715.689,5725.17"
         id="path3375" /></clipPath><clipPath
       clipPathUnits="userSpaceOnUse"
       id="clipPath3385"><path
         d="M 903.401,5439.14 L 599.387,5439.14 L 599.387,5368.04 L 922.097,5368.04 C 917.181,5392.26 910.926,5415.97 903.401,5439.14"
         id="path3387" /></clipPath><clipPath
       clipPathUnits="userSpaceOnUse"
       id="clipPath3397"><path
         d="M 15.8657,5839.8 C 10.5515,5837.43 5.23877,5834.97 0,5832.46 L 0,5823.24 C 5.25659,5825.8 10.531,5828.28 15.8657,5830.7 L 15.8657,5839.8"
         id="path3399" /></clipPath><clipPath
       clipPathUnits="userSpaceOnUse"
       id="clipPath3409"><path
         d="M 18.1858,5840.84 C 17.4033,5840.49 16.6467,5840.15 15.8657,5839.8 L 15.8657,5830.7 C 16.6345,5831.05 17.4155,5831.4 18.1858,5831.74 L 18.1858,5840.84"
         id="path3411" /></clipPath><clipPath
       clipPathUnits="userSpaceOnUse"
       id="clipPath3421"><path
         d="M 284.464,5896.85 L 284.464,5896.85 C 214.825,5896.85 147.726,5886.05 84.7178,5866.04 L 84.7178,5857.31 C 147.652,5877.59 214.777,5888.54 284.464,5888.54 C 449.884,5888.54 600.853,5826.82 715.689,5725.17 C 718.325,5726.55 720.988,5727.87 723.68,5729.14 C 607.11,5833.44 453.196,5896.85 284.464,5896.85"
         id="path3423" /></clipPath><clipPath
       clipPathUnits="userSpaceOnUse"
       id="clipPath3433"><path
         d="M 84.7178,5866.04 C 61.9868,5858.81 39.7732,5850.38 18.1858,5840.84 L 18.1858,5831.74 C 39.7664,5841.43 61.9668,5849.98 84.7178,5857.31 L 84.7178,5866.04"
         id="path3435" /></clipPath><clipPath
       clipPathUnits="userSpaceOnUse"
       id="clipPath3445"><path
         d="M 730.344,5723.1 C 727.633,5721.87 724.948,5720.58 722.295,5719.25 C 729.891,5712.34 737.314,5705.26 744.575,5698 C 816.276,5626.26 871.323,5537.87 903.401,5439.14 L 912.126,5439.14 C 876.864,5549.2 813.43,5646.71 730.344,5723.1"
         id="path3447" /></clipPath><clipPath
       clipPathUnits="userSpaceOnUse"
       id="clipPath3457"><path
         d="M 723.68,5729.14 C 720.988,5727.87 718.325,5726.55 715.689,5725.17 C 717.904,5723.21 720.106,5721.24 722.295,5719.25 C 724.948,5720.58 727.633,5721.87 730.344,5723.1 C 728.131,5725.14 725.921,5727.14 723.68,5729.14"
         id="path3459" /></clipPath><clipPath
       clipPathUnits="userSpaceOnUse"
       id="clipPath3469"><path
         d="M 586.365,4661.36 C 542.659,4638.43 496.018,4620.32 447.164,4607.74 L 447.164,4599.17 C 495.954,4611.56 542.604,4629.41 586.365,4652 L 586.365,4661.36 M 0,4652.55 L 0,4643.33 C 5.23877,4640.81 10.5515,4638.35 15.8657,4635.98 L 15.8657,4645.09 C 10.531,4647.51 5.25659,4649.99 0,4652.55"
         id="path3471" /></clipPath><clipPath
       clipPathUnits="userSpaceOnUse"
       id="clipPath3481"><path
         d="M 15.8657,4645.09 L 15.8657,4635.98 C 16.6467,4635.63 17.4033,4635.29 18.1858,4634.95 L 18.1858,4644.04 C 17.4155,4644.39 16.6345,4644.74 15.8657,4645.09 M 84.7178,4618.47 L 84.7178,4609.75 C 147.726,4589.73 214.825,4578.93 284.464,4578.93 C 340.619,4578.93 395.121,4585.96 447.164,4599.17 L 447.164,4607.74 C 395.164,4594.36 340.649,4587.24 284.464,4587.24 C 214.777,4587.24 147.652,4598.2 84.7178,4618.47"
         id="path3483" /></clipPath><clipPath
       clipPathUnits="userSpaceOnUse"
       id="clipPath3493"><path
         d="M 18.1858,4644.04 L 18.1858,4634.95 C 39.7732,4625.4 61.9868,4616.97 84.7178,4609.75 L 84.7178,4618.47 C 61.9668,4625.8 39.7664,4634.35 18.1858,4644.04"
         id="path3495" /></clipPath><clipPath
       clipPathUnits="userSpaceOnUse"
       id="clipPath3505"><path
         d="M 931.954,5360.93 L 923.501,5360.93 C 931.126,5321.08 935.116,5279.96 935.116,5237.89 C 935.116,5058.2 862.297,4895.58 744.575,4777.78 C 700.416,4733.65 649.969,4695.84 594.672,4665.8 L 594.672,4656.37 C 780.299,4755.59 912.856,4941.09 938.783,5159.31 L 938.783,5316.47 C 937.003,5331.46 934.722,5346.27 931.954,5360.93"
         id="path3507" /></clipPath><clipPath
       clipPathUnits="userSpaceOnUse"
       id="clipPath3517"><path
         d="M 930.571,5368.04 L 922.097,5368.04 C 922.576,5365.68 923.048,5363.3 923.501,5360.93 L 931.954,5360.93 C 931.504,5363.31 931.046,5365.67 930.571,5368.04"
         id="path3519" /></clipPath><clipPath
       clipPathUnits="userSpaceOnUse"
       id="clipPath3529"><path
         d="M 594.672,4665.8 C 591.917,4664.3 589.144,4662.82 586.365,4661.36 L 586.365,4652 C 589.153,4653.44 591.907,4654.89 594.672,4656.37 L 594.672,4665.8"
         id="path3531" /></clipPath><clipPath
       clipPathUnits="userSpaceOnUse"
       id="clipPath3541"><path
         d="M 912.126,5439.14 L 903.401,5439.14 C 910.926,5415.97 917.181,5392.26 922.097,5368.04 L 930.571,5368.04 C 925.722,5392.24 919.549,5415.97 912.126,5439.14"
         id="path3543" /></clipPath><clipPath
       clipPathUnits="userSpaceOnUse"
       id="clipPath3553"><path
         d="M 0,7008.66 L 4950.02,7008.66 L 4950.02,7.97803 L 0,7.97803 L 0,7008.66"
         id="path3555" /></clipPath><clipPath
       clipPathUnits="userSpaceOnUse"
       id="clipPath4017"><path
         d="M 4857.14,1259.44 C 4855.42,1259.44 4854.15,1258.32 4854.15,1256.6 C 4854.15,1254.8 4855.64,1253.45 4857.51,1253.45 C 4859.16,1253.45 4860.43,1254.57 4860.43,1256.15 L 4860.43,1256.22 C 4860.43,1258.09 4858.94,1259.44 4857.14,1259.44 M 4845.07,1250.13 C 4844.71,1248.83 4844.34,1247.52 4843.97,1246.23 L 4859.91,1243.2 L 4859.91,1247.32 L 4845.07,1250.13"
         id="path4019" /></clipPath><clipPath
       clipPathUnits="userSpaceOnUse"
       id="clipPath4027"><path
         d="M 4818.15,716.705 L 4872.33,716.705 L 4872.33,1262.96 L 4818.15,1262.96 L 4818.15,716.705"
         id="path4029" /></clipPath></defs><sodipodi:namedview
     inkscape:window-height="779"
     inkscape:window-width="1107"
     inkscape:pageshadow="2"
     inkscape:pageopacity="0.0"
     guidetolerance="10.0"
     gridtolerance="10.0"
     objecttolerance="10.0"
     borderopacity="1.0"
     bordercolor="#666666"
     pagecolor="#ffffff"
     id="base"
     showgrid="false"
     inkscape:zoom="5.7195172"
     inkscape:cx="62.157224"
     inkscape:cy="24.340947"
     inkscape:window-x="0"
     inkscape:window-y="22"
     inkscape:current-layer="g2469" /><g
     id="g2469"
     inkscape:groupmode="layer"
     inkscape:label="PlaquetteMSTSHPEC"
     transform="matrix(1.25,0,0,-1.25,-573.8355,81.5778)"><g
       id="g4869"
       transform="translate(0.4,-0.3985612)"><g
         id="g4832"><path
           id="path3091"
           style="fill:#f68712;fill-opacity:1;fill-rule:nonzero;stroke:none"
           d="M 514.7328,62.77752 L 513.6984,59.79792 L 515.736,59.79792 L 514.7328,62.77752 z M 516.6432,57.003 L 516.1608,58.45284 L 513.2496,58.45284 L 512.754,57.003 L 511.0872,57.003 L 514.0656,65.19432 L 515.3208,65.19432 L 518.3112,57.003" /><path
           id="path3093"
           style="fill:#f68712;fill-opacity:1;fill-rule:nonzero;stroke:none"
           d="M 521.8548,63.7674 L 520.3476,63.7674 L 520.3476,61.60404 L 521.8548,61.60404 C 522.558,61.60404 523.0188,62.05308 523.0188,62.68572 C 523.0188,63.31944 522.558,63.7674 521.8548,63.7674 M 523.098,57.003 L 521.4984,60.26892 L 520.3476,60.26892 L 520.3476,57.003 L 518.7492,57.003 L 518.7492,65.19432 L 521.9592,65.19432 C 523.6272,65.19432 524.6172,64.05576 524.6172,62.68572 C 524.6172,61.53624 523.9152,60.82272 523.1208,60.53436 L 524.9508,57.003" /><path
           id="path3095"
           style="fill:#f68712;fill-opacity:1;fill-rule:nonzero;stroke:none"
           d="M 528.828,63.7674 L 528.828,57.003 L 527.2284,57.003 L 527.2284,63.7674 L 525.0888,63.7674 L 525.0888,65.19432 L 530.9676,65.19432 L 530.9676,63.7674" /><path
           id="path3097"
           style="fill:#f68712;fill-opacity:1;fill-rule:nonzero;stroke:none"
           d="M 533.9484,56.93316 C 532.7052,56.93316 531.7608,57.19752 530.9568,58.01484 L 531.9924,59.0496 C 532.5096,58.53264 533.2116,58.359 533.97,58.359 C 534.9144,58.359 535.4196,58.71828 535.4196,59.37288 C 535.4196,59.66124 535.3404,59.90268 535.1676,60.0624 C 535.0056,60.21108 534.8232,60.29292 534.4428,60.3498 L 533.4528,60.48948 C 532.752,60.59328 532.2336,60.81072 531.8652,61.16796 C 531.4728,61.55916 531.2784,62.088 531.2784,62.77752 C 531.2784,64.23936 532.3608,65.26224 534.132,65.26224 C 535.2588,65.26224 536.0772,64.9878 536.7792,64.3092 L 535.7664,63.30744 C 535.2468,63.80136 534.6252,63.8712 534.0852,63.8712 C 533.2356,63.8712 532.8192,63.39924 532.8192,62.83644 C 532.8192,62.62788 532.8888,62.40936 533.0616,62.24964 C 533.2236,62.09904 533.4876,61.97232 533.8224,61.9284 L 534.7884,61.78968 C 535.536,61.68384 536.0076,61.47732 536.3532,61.15608 C 536.79,60.74088 536.9856,60.14316 536.9856,59.4198 C 536.9856,57.83124 535.662,56.93316 533.9484,56.93316" /></g><g
         id="g4838"><path
           id="path3099"
           style="fill:#8c2b6b;fill-opacity:1;fill-rule:nonzero;stroke:none"
           d="M 518.4156,47.46252 L 518.4156,55.65588 L 523.812,55.65588 L 523.812,54.22992 L 520.0152,54.22992 L 520.0152,52.308 L 523.2468,52.308 L 523.2468,50.88108 L 520.0152,50.88108 L 520.0152,48.89136 L 523.812,48.89136 L 523.812,47.46252" /><path
           id="path3101"
           style="fill:#8c2b6b;fill-opacity:1;fill-rule:nonzero;stroke:none"
           d="M 527.9304,54.22992 L 527.9304,47.46252 L 526.3308,47.46252 L 526.3308,54.22992 L 524.1912,54.22992 L 524.1912,55.65588 L 530.07,55.65588 L 530.07,54.22992" /></g><g
         id="g4842"><path
           id="path3103"
           style="fill:#8c2b6b;fill-opacity:1;fill-rule:nonzero;stroke:none"
           d="M 538.7112,47.46252 L 538.7112,52.2402 L 537.1464,49.1328 L 536.064,49.1328 L 534.4884,52.2402 L 534.4884,47.46252 L 532.8888,47.46252 L 532.8888,55.65588 L 534.4644,55.65588 L 536.6052,51.22632 L 538.7352,55.65588 L 540.3108,55.65588 L 540.3108,47.46252" /><path
           id="path3105"
           style="fill:#8c2b6b;fill-opacity:1;fill-rule:nonzero;stroke:none"
           d="M 541.6452,47.46252 L 541.6452,55.65588 L 547.0404,55.65588 L 547.0404,54.22992 L 543.2436,54.22992 L 543.2436,52.308 L 546.4764,52.308 L 546.4764,50.88108 L 543.2436,50.88108 L 543.2436,48.89136 L 547.0404,48.89136 L 547.0404,47.46252" /><path
           id="path3107"
           style="fill:#8c2b6b;fill-opacity:1;fill-rule:nonzero;stroke:none"
           d="M 551.16,54.22992 L 551.16,47.46252 L 549.5592,47.46252 L 549.5592,54.22992 L 547.4196,54.22992 L 547.4196,55.65588 L 553.2996,55.65588 L 553.2996,54.22992" /><path
           id="path3109"
           style="fill:#8c2b6b;fill-opacity:1;fill-rule:nonzero;stroke:none"
           d="M 554.0244,47.46252 L 555.62401,47.46252 L 555.62401,55.655916 L 554.0244,55.655916 L 554.0244,47.46252 z" /><path
           id="path3111"
           style="fill:#8c2b6b;fill-opacity:1;fill-rule:nonzero;stroke:none"
           d="M 556.9572,47.46252 L 556.9572,55.65588 L 562.3548,55.65588 L 562.3548,54.22992 L 558.5592,54.22992 L 558.5592,52.308 L 561.7896,52.308 L 561.7896,50.88108 L 558.5592,50.88108 L 558.5592,48.89136 L 562.3548,48.89136 L 562.3548,47.46252" /><path
           id="path3113"
           style="fill:#8c2b6b;fill-opacity:1;fill-rule:nonzero;stroke:none"
           d="M 566.4504,54.22992 L 564.9432,54.22992 L 564.9432,52.06656 L 566.4504,52.06656 C 567.1512,52.06656 567.6132,52.51464 567.6132,53.14824 C 567.6132,53.78184 567.1512,54.22992 566.4504,54.22992 M 567.6936,47.46252 L 566.094,50.73144 L 564.9432,50.73144 L 564.9432,47.46252 L 563.3436,47.46252 L 563.3436,55.65588 L 566.5536,55.65588 C 568.2228,55.65588 569.2116,54.51828 569.2116,53.14824 C 569.2116,51.99768 568.5096,51.2832 567.7152,50.99592 L 569.544,47.46252" /><path
           id="path3115"
           style="fill:#8c2b6b;fill-opacity:1;fill-rule:nonzero;stroke:none"
           d="M 572.5476,47.3946 C 571.3056,47.3946 570.3624,47.66004 569.556,48.47628 L 570.5928,49.51308 C 571.1112,48.99516 571.8132,48.82152 572.5716,48.82152 C 573.5136,48.82152 574.0212,49.1778 574.0212,49.83432 C 574.0212,50.12172 573.9396,50.36316 573.768,50.52492 C 573.6072,50.67456 573.4224,50.75436 573.0432,50.81328 L 572.0532,50.94996 C 571.3512,51.05268 570.8352,51.27324 570.4656,51.62952 C 570.0744,52.02168 569.88,52.54956 569.88,53.24004 C 569.88,54.70092 570.9612,55.72476 572.7324,55.72476 C 573.8604,55.72476 574.6776,55.44924 575.3784,54.7698 L 574.3668,53.76996 C 573.8484,54.26484 573.2268,54.33264 572.6868,54.33264 C 571.8348,54.33264 571.4196,53.86164 571.4196,53.29788 C 571.4196,53.08932 571.4904,52.8708 571.6632,52.7112 C 571.824,52.56144 572.0868,52.43472 572.4216,52.38792 L 573.3888,52.25112 C 574.1352,52.14636 574.608,51.93984 574.9524,51.61848 C 575.3904,51.2034 575.586,50.60472 575.586,49.88124 C 575.586,48.29364 574.2636,47.3946 572.5476,47.3946" /><path
           id="path3117"
           style="fill:#8c2b6b;fill-opacity:1;fill-rule:nonzero;stroke:none"
           d="M 545.058,58.96968 L 544.4088,57.86412 L 543.7572,56.75952 L 545.2428,56.75952 L 546.5436,58.96968" /></g><g
         id="g4864"><path
           id="path3119"
           style="fill:#8c2b6b;fill-opacity:1;fill-rule:nonzero;stroke:none"
           d="M 504.4908,51.39996 L 485.8608,51.40392 L 494.022,37.54476 L 512.6532,37.5408" /><path
           id="path3121"
           style="fill:#f68712;fill-opacity:1;fill-rule:nonzero;stroke:none"
           d="M 475.392,65.25828 L 467.2308,51.39996 L 467.2296,51.39996 L 459.0684,37.5408 L 477.6984,37.54476 L 494.022,65.26224" /><path
           id="path3123"
           style="fill:#8c2b6b;fill-opacity:1;fill-rule:nonzero;stroke:none"
           d="M 467.2296,51.39996 L 485.8608,51.40392 L 477.6984,37.54476 L 459.0684,37.5408" /></g><g
         id="g4852"><path
           id="path3073"
           style="fill:#666666;fill-opacity:1;fill-rule:nonzero;stroke:none"
           d="M 519.5604,41.28468 C 519.8916,41.28468 520.7556,41.21088 521.3508,41.30868 C 523.2216,41.622 524.1864,42.22764 524.1864,43.5648 C 524.1864,44.898 523.3404,45.37596 520.7676,45.37596 L 518.3988,45.37596 L 518.3988,37.8192 C 518.5824,37.8312 518.7816,37.84908 518.9784,37.84908 C 519.1632,37.84908 519.3492,37.8312 519.5604,37.8192 L 519.5604,41.28468 z M 519.5604,44.94288 C 519.9576,44.96484 520.8996,44.9778 521.472,44.93088 C 522.5208,44.85504 522.9708,44.25936 522.9708,43.50888 C 522.9708,42.528 522.2004,41.83056 520.8744,41.72172 C 520.4232,41.68584 519.8916,41.68584 519.5604,41.72172" /><path
           id="path3075"
           style="fill:#666666;fill-opacity:1;fill-rule:nonzero;stroke:none"
           d="M 527.5452,41.06016 L 527.3316,40.9764 C 526.8468,40.78776 526.86,40.81068 525.9756,40.62012 C 524.934,40.39368 523.8612,40.26396 523.806,39.07452 C 523.7748,38.32404 524.5608,37.75128 525.4464,37.70436 C 526.3164,37.65756 527.19,38.03964 527.4744,38.76312 L 527.4744,37.84908 L 529.2168,37.84908 L 529.2168,38.05164 L 528.6168,38.05164 L 528.6168,41.37048 C 528.6168,42.25164 528.462,43.07184 526.5756,43.15572 C 526.0608,43.1796 526.14,43.13268 525.7668,43.08588 C 525.3372,43.02504 524.9388,42.89232 524.6544,42.78552 L 524.6544,41.19096 L 524.91,41.19096 L 525.2256,41.85756 C 525.4956,42.43128 525.5316,43.04892 526.4616,42.96504 C 527.388,42.88332 527.5452,42.37044 527.5452,41.82252 L 527.5452,41.06016 z M 527.5452,40.31076 C 527.5452,40.00248 527.5608,39.81192 527.5176,39.50352 C 527.4168,38.81208 526.8744,38.05164 525.9756,38.0028 C 525.2184,37.95384 524.8608,38.5506 524.9196,39.0984 C 525.0468,40.32372 525.5196,40.16808 526.974,40.62012 L 527.5452,40.79976" /><path
           id="path3077"
           style="fill:#666666;fill-opacity:1;fill-rule:nonzero;stroke:none"
           d="M 532.788,37.84908 L 530.202,37.84908 L 530.202,38.05164 L 530.8452,38.05164 L 530.8452,42.81048 L 530.1744,42.81048 L 530.1744,43.02504 L 531.8448,43.02504 L 531.8448,41.94132 C 531.9168,42.33348 532.5156,43.05996 533.4576,43.05996 C 533.73,43.05996 533.9724,43.00008 534.2436,42.88332 L 534.2436,41.00232 L 533.9724,41.00232 L 533.6292,41.86944 C 533.3856,42.47712 533.2008,42.86928 532.83,42.69168 C 531.8604,42.22764 531.9456,41.11104 531.9456,40.06236 L 531.9456,38.05164 L 532.788,38.05164" /><path
           id="path3079"
           style="fill:#666666;fill-opacity:1;fill-rule:nonzero;stroke:none"
           d="M 534.8604,37.84908 L 534.8604,38.05164 L 535.518,38.05164 L 535.518,42.81048 L 534.9036,42.81048 L 534.9036,43.02504 L 536.6316,43.02504 L 536.6316,38.05164 L 537.216,38.05164 L 537.216,37.84908" /><path
           id="path3081"
           style="fill:#666666;fill-opacity:1;fill-rule:nonzero;stroke:none"
           d="M 541.6836,41.81064 C 541.4124,42.61992 541.14,42.94116 540.3996,42.94116 C 539.7564,42.94116 538.9428,42.7266 538.8828,42.072 C 538.842,41.48724 539.5704,41.2518 540.228,41.07216 C 541.3416,40.75284 542.64,40.4196 542.5956,39.3828 C 542.5668,38.39496 541.584,37.66944 540.24,37.69248 C 539.4708,37.70436 538.5996,37.95384 538.2984,38.13348 L 538.2984,39.83484 L 538.5576,39.83484 L 538.8588,38.97972 C 539.1852,38.0148 539.5572,38.0028 540.1416,37.95384 C 540.9552,37.884 541.8828,38.21736 541.9536,38.88384 C 542.0544,39.70416 540.7416,39.91872 539.9124,40.16808 C 539.328,40.34772 538.1856,40.66704 538.1856,41.643 C 538.1856,42.78552 539.67,43.16772 540.4548,43.16772 C 541.1124,43.16772 541.8672,42.95316 542.1396,42.81048 L 542.1396,41.2518 L 541.8672,41.2518" /><path
           id="path3083"
           style="fill:#666666;fill-opacity:1;fill-rule:nonzero;stroke:none"
           d="M 545.4516,37.7982 C 545.2392,37.8102 545.058,37.8162 544.8732,37.8162 C 544.674,37.8162 544.476,37.8102 544.2912,37.7982 L 544.2912,44.85108 C 542.9532,44.85108 542.142,44.7852 541.3884,44.71836 C 541.4004,44.82816 541.4364,44.9388 541.4364,45.0486 C 541.4364,45.15744 541.4004,45.25512 541.3884,45.37596 L 548.2248,45.37596 C 548.2128,45.25512 548.1936,45.15744 548.1936,45.0486 C 548.1936,44.9388 548.2128,44.82816 548.2248,44.71836 C 547.5612,44.7852 546.6324,44.85108 545.4516,44.85108" /><path
           id="path3085"
           style="fill:#666666;fill-opacity:1;fill-rule:nonzero;stroke:none"
           d="M 551.856,39.774 L 551.586,39.774 L 551.5716,39.63228 C 551.5008,38.9208 550.9128,37.896 549.7992,37.95384 C 548.5452,38.0148 548.2716,39.10944 548.2716,40.34772 L 548.2716,40.95348 L 551.8404,40.95348 C 551.9688,42.04908 551.0556,43.20264 549.6288,43.1886 C 548.1576,43.16772 547.1592,41.94132 547.0716,40.48944 C 546.9864,38.90688 548.172,37.68144 549.7152,37.70436 C 550.926,37.7304 551.7552,38.62044 551.8404,39.61032 L 551.856,39.774 z M 548.3844,41.82252 C 548.4852,42.39336 548.9436,42.94116 549.5712,42.96504 C 550.3272,43.00008 550.6152,42.33348 550.6296,41.73876 L 550.6416,41.17992 L 548.2716,41.17992" /><path
           id="path3087"
           style="fill:#666666;fill-opacity:1;fill-rule:nonzero;stroke:none"
           d="M 556.9752,41.07216 L 556.8336,41.50128 C 556.5204,42.53604 556.1484,43.00008 555.4932,43.01304 C 554.1072,43.03692 553.878,41.5362 553.9068,40.40556 C 553.9356,39.3588 554.0484,38.0148 555.5064,38.0028 C 556.3632,37.99284 556.8924,38.66928 557.0328,39.39576 L 557.1072,39.774 L 557.3628,39.774 L 557.322,39.51348 C 557.1072,38.14548 556.206,37.71636 555.2088,37.7304 C 553.5936,37.74132 552.6804,39.14532 552.6804,40.47744 C 552.6804,41.86944 553.7496,43.16772 555.42,43.22748 C 555.8496,43.23756 556.59,43.20264 557.2488,42.88332 L 557.2488,41.07216" /><path
           id="path3089"
           style="fill:#666666;fill-opacity:1;fill-rule:nonzero;stroke:none"
           d="M 561.4152,37.84908 L 561.4152,38.05164 L 562.1736,38.05164 L 562.1736,41.46636 C 562.1736,42.14184 562.1868,42.82248 561.3576,42.79752 C 560.1588,42.76248 560.0028,41.3586 560.0028,40.31076 L 560.0028,38.05164 L 560.8164,38.05164 L 560.8164,37.84908 L 558.318,37.84908 L 558.318,38.05164 L 558.9204,38.05164 L 558.9204,44.65452 L 558.2772,44.65452 L 558.2772,44.86896 L 560.0028,44.86896 L 560.0028,42.16776 C 560.1732,42.61992 560.9016,43.16772 561.6732,43.10676 C 562.83,43.02504 563.2296,42.61992 563.2296,41.5242 L 563.2296,38.05164 L 563.8584,38.05164 L 563.8584,37.84908" /><path
           id="path3125"
           style="fill:#666666;fill-opacity:1;fill-rule:nonzero;stroke:none"
           d="M 536.6604,44.73228 C 536.6604,44.39904 536.3316,44.16156 535.9596,44.16156 C 535.6032,44.16156 535.2744,44.42292 535.2744,44.72028 C 535.2744,45.01668 535.5888,45.30312 535.9452,45.30312 C 536.3316,45.30312 536.6604,45.0426 536.6604,44.73228" /></g></g></g></svg>